<svg id="Capa_1" enable-background="new 0 0 512 512" height="512" viewBox="0 0 512 512" width="512" xmlns="http://www.w3.org/2000/svg"><g><path d="m311.804 316.156c62.478-22.835 107.196-82.871 107.196-153.157 0-89.878-73.121-162.999-163-162.999h-118c-24.853 0-45 20.147-45 45v235.999c0 .065.005.13.005.195s-.005.13-.005.195v185.609c0 24.852 20.147 45 45 45s45-20.147 45-45v-140.999h22.115l132.487 168.785c8.878 11.31 22.085 17.216 35.428 17.216 9.721 0 19.516-3.137 27.755-9.604 19.55-15.345 22.958-43.633 7.612-63.182zm-128.804-226.156h73c40.252 0 73 32.747 73 73s-32.748 73-73 73h-73z"/></g></svg>